<svg width="1920" height="3463" fill="none" xmlns="http://www.w3.org/2000/svg"><g opacity=".5" filter="url(#filter0_f)"><path d="M123.526 485.637c-79.19-68.135-24.743-170.835 12.38-213.668C-317.737 391.435-69.408 480.371-83.558 615.311c-14.151 134.94 254.162 112.243 298.034 56.275 43.871-55.967 8.037-100.78-90.95-185.949z" fill="#41EAD4"/></g><g opacity=".15" filter="url(#filter1_f)"><path d="M126.634 2396.67c-149.438-128.58-46.691-322.38 23.362-403.21-856.064 225.44-387.445 393.27-414.148 647.91-26.703 254.65 479.628 211.82 562.416 106.2 82.789-105.61 15.168-190.18-171.63-350.9z" fill="#41EAD4"/></g><g opacity=".1" filter="url(#filter2_f)"><path d="M331.821 2664.65c-3.887-160.54-179.061-195.84-266.162-193.42 583.989-423.11 447.845-41.15 622.106 73.47 174.26 114.63-114.109 411.6-223.405 409.26-109.295-2.35-127.681-88.62-132.539-289.31z" fill="#41ADEA"/></g><g opacity=".5" filter="url(#filter3_f)"><path d="M1791.83 1009.64c79.19-68.138 24.74-170.838-12.38-213.671 453.64 119.466 205.31 208.401 219.46 343.341 14.15 134.94-254.16 112.24-298.03 56.28-43.87-55.97-8.04-100.78 90.95-185.95z" fill="#41EAD4"/></g><g opacity=".5" filter="url(#filter4_f)"><path d="M1682.25 872.493c40.16-34.552 12.55-86.631-6.28-108.352 230.05 60.582 104.12 105.682 111.29 174.111 7.18 68.428-128.88 56.919-151.13 28.537-22.25-28.381-4.08-51.106 46.12-94.296z" fill="#7741EA"/></g><g opacity=".5" filter="url(#filter5_f)"><path d="M167.249 679.493c40.158-34.552 12.548-86.631-6.277-108.352 230.045 60.582 104.116 105.682 111.291 174.111 7.176 68.428-128.887 56.919-151.135 28.537-22.247-28.381-4.076-51.106 46.121-94.296z" fill="#7741EA"/></g><g opacity=".1" filter="url(#filter6_f)"><path fill-rule="evenodd" clip-rule="evenodd" d="M1585.14 503.361c171.55-21.738 342.9 63.975 451.26 198.743 108.86 135.396 149.87 319.366 98.82 485.436-47.31 153.92-193.58 244.12-342.17 306.18-136.66 57.07-285.86 71.09-422.09 13.02-144.94-61.78-285.09-169.54-310.07-325.1-23.83-148.43 104.8-261.909 196.73-380.853 94.88-122.76 173.6-277.921 327.52-297.426z" fill="#7741EA"/></g><g opacity=".1" filter="url(#filter7_f)"><path fill-rule="evenodd" clip-rule="evenodd" d="M2009.14 1668.36c171.55-21.74 342.9 63.98 451.26 198.74 108.86 135.4 149.87 319.37 98.82 485.44-47.31 153.92-193.58 244.12-342.17 306.18-136.66 57.07-285.86 71.09-422.09 13.02-144.94-61.78-285.09-169.54-310.07-325.1-23.83-148.43 104.8-261.91 196.73-380.85 94.88-122.76 173.6-277.92 327.52-297.43z" fill="#7741EA"/></g><g opacity=".07" filter="url(#filter8_f)"><path fill-rule="evenodd" clip-rule="evenodd" d="M501.627 350.34c221.503-28.068 442.747 82.604 582.653 256.615 140.56 174.82 193.52 412.365 127.6 626.785-61.09 198.74-249.952 315.21-441.805 395.34-176.449 73.69-369.087 91.79-544.994 16.81-187.137-79.77-368.102-218.91-400.348-419.77-30.768-191.65 135.312-338.169 254.013-491.747 122.51-158.506 224.142-358.849 422.881-384.033z" fill="#41EAD4"/></g><g opacity=".1" filter="url(#filter9_f)"><path fill-rule="evenodd" clip-rule="evenodd" d="M1971.37 1869.34c-221.5-28.07-442.74 82.6-582.65 256.61-140.56 174.83-193.52 412.37-127.6 626.79 61.09 198.74 249.95 315.21 441.81 395.34 176.44 73.69 369.08 91.79 544.99 16.81 187.14-79.77 368.1-218.91 400.35-419.77 30.76-191.65-135.32-338.17-254.02-491.75-122.51-158.5-224.14-358.85-422.88-384.03z" fill="#41EAD4"/></g><g opacity=".11" filter="url(#filter10_f)"><path fill-rule="evenodd" clip-rule="evenodd" d="M334.228 349.271c167.025-21.155 333.855 62.259 439.351 193.413C879.566 674.448 919.5 853.487 869.799 1015.1c-46.068 149.79-188.48 237.57-333.147 297.97-133.051 55.54-278.311 69.18-410.954 12.67-141.11-60.12-277.568-164.99-301.883-316.38-23.201-144.454 102.032-254.886 191.54-370.64 92.378-119.467 169.014-270.467 318.873-289.449z" fill="#BE41EA"/></g><defs><filter id="filter0_f" x="-449" y="0" width="1010.36" height="1039.23" filterUnits="userSpaceOnUse" color-interpolation-filters="sRGB"><feFlood flood-opacity="0" result="BackgroundImageFix"/><feBlend in="SourceGraphic" in2="BackgroundImageFix" result="shape"/><feGaussianBlur stdDeviation="125" result="effect1_foregroundBlur"/></filter><filter id="filter1_f" x="-732" y="1702" width="1463.08" height="1517.58" filterUnits="userSpaceOnUse" color-interpolation-filters="sRGB"><feFlood flood-opacity="0" result="BackgroundImageFix"/><feBlend in="SourceGraphic" in2="BackgroundImageFix" result="shape"/><feGaussianBlur stdDeviation="125" result="effect1_foregroundBlur"/></filter><filter id="filter2_f" x="-200" y="1956" width="1275.67" height="1323.32" filterUnits="userSpaceOnUse" color-interpolation-filters="sRGB"><feFlood flood-opacity="0" result="BackgroundImageFix"/><feBlend in="SourceGraphic" in2="BackgroundImageFix" result="shape"/><feGaussianBlur stdDeviation="125" result="effect1_foregroundBlur"/></filter><filter id="filter3_f" x="1354" y="524" width="1010.36" height="1039.23" filterUnits="userSpaceOnUse" color-interpolation-filters="sRGB"><feFlood flood-opacity="0" result="BackgroundImageFix"/><feBlend in="SourceGraphic" in2="BackgroundImageFix" result="shape"/><feGaussianBlur stdDeviation="125" result="effect1_foregroundBlur"/></filter><filter id="filter4_f" x="1337" y="503" width="758.804" height="773.448" filterUnits="userSpaceOnUse" color-interpolation-filters="sRGB"><feFlood flood-opacity="0" result="BackgroundImageFix"/><feBlend in="SourceGraphic" in2="BackgroundImageFix" result="shape"/><feGaussianBlur stdDeviation="125" result="effect1_foregroundBlur"/></filter><filter id="filter5_f" x="-178" y="310" width="758.804" height="773.448" filterUnits="userSpaceOnUse" color-interpolation-filters="sRGB"><feFlood flood-opacity="0" result="BackgroundImageFix"/><feBlend in="SourceGraphic" in2="BackgroundImageFix" result="shape"/><feGaussianBlur stdDeviation="125" result="effect1_foregroundBlur"/></filter><filter id="filter6_f" x="808" y="250" width="1599" height="1544" filterUnits="userSpaceOnUse" color-interpolation-filters="sRGB"><feFlood flood-opacity="0" result="BackgroundImageFix"/><feBlend in="SourceGraphic" in2="BackgroundImageFix" result="shape"/><feGaussianBlur stdDeviation="125" result="effect1_foregroundBlur"/></filter><filter id="filter7_f" x="1232" y="1415" width="1599" height="1544" filterUnits="userSpaceOnUse" color-interpolation-filters="sRGB"><feFlood flood-opacity="0" result="BackgroundImageFix"/><feBlend in="SourceGraphic" in2="BackgroundImageFix" result="shape"/><feGaussianBlur stdDeviation="125" result="effect1_foregroundBlur"/></filter><filter id="filter8_f" x="-429" y="96" width="1919" height="1848" filterUnits="userSpaceOnUse" color-interpolation-filters="sRGB"><feFlood flood-opacity="0" result="BackgroundImageFix"/><feBlend in="SourceGraphic" in2="BackgroundImageFix" result="shape"/><feGaussianBlur stdDeviation="125" result="effect1_foregroundBlur"/></filter><filter id="filter9_f" x="983" y="1615" width="1919" height="1848" filterUnits="userSpaceOnUse" color-interpolation-filters="sRGB"><feFlood flood-opacity="0" result="BackgroundImageFix"/><feBlend in="SourceGraphic" in2="BackgroundImageFix" result="shape"/><feGaussianBlur stdDeviation="125" result="effect1_foregroundBlur"/></filter><filter id="filter10_f" x="-429" y="96" width="1570" height="1516" filterUnits="userSpaceOnUse" color-interpolation-filters="sRGB"><feFlood flood-opacity="0" result="BackgroundImageFix"/><feBlend in="SourceGraphic" in2="BackgroundImageFix" result="shape"/><feGaussianBlur stdDeviation="125" result="effect1_foregroundBlur"/></filter></defs></svg>