<svg width="230" height="230" viewBox="0 0 230 230" fill="none" xmlns="http://www.w3.org/2000/svg">
<circle cx="5" cy="125" r="5" fill="#41EAD4"/>
<circle cx="25" cy="125" r="5" fill="#41EAD4"/>
<circle cx="45" cy="125" r="5" fill="#41EAD4"/>
<circle cx="5" cy="145" r="5" fill="#41EAD4"/>
<circle cx="25" cy="145" r="5" fill="#41EAD4"/>
<circle cx="45" cy="145" r="5" fill="#41EAD4"/>
<circle cx="5" cy="165" r="5" fill="#41EAD4"/>
<circle cx="25" cy="165" r="5" fill="#41EAD4"/>
<circle cx="45" cy="165" r="5" fill="#41EAD4"/>
<circle cx="5" cy="185" r="5" fill="#41EAD4"/>
<circle cx="25" cy="185" r="5" fill="#41EAD4"/>
<circle cx="45" cy="185" r="5" fill="#41EAD4"/>
<circle cx="65" cy="185" r="5" fill="#41EAD4"/>
<circle cx="85" cy="185" r="5" fill="#41EAD4"/>
<circle cx="105" cy="185" r="5" fill="#41EAD4"/>
<circle cx="5" cy="205" r="5" fill="#41EAD4"/>
<circle cx="25" cy="205" r="5" fill="#41EAD4"/>
<circle cx="45" cy="205" r="5" fill="#41EAD4"/>
<circle cx="65" cy="205" r="5" fill="#41EAD4"/>
<circle cx="85" cy="205" r="5" fill="#41EAD4"/>
<circle cx="105" cy="205" r="5" fill="#41EAD4"/>
<circle cx="5" cy="225" r="5" fill="#41EAD4"/>
<circle cx="25" cy="225" r="5" fill="#41EAD4"/>
<circle cx="45" cy="225" r="5" fill="#41EAD4"/>
<circle cx="65" cy="225" r="5" fill="#41EAD4"/>
<circle cx="85" cy="225" r="5" fill="#41EAD4"/>
<circle cx="105" cy="225" r="5" fill="#41EAD4"/>
<circle cx="5" cy="5" r="5" fill="#41EAD4"/>
<circle cx="25" cy="5" r="5" fill="#41EAD4"/>
<circle cx="45" cy="5" r="5" fill="#41EAD4"/>
<circle cx="5" cy="25" r="5" fill="#41EAD4"/>
<g filter="url(#filter0_d)">
<circle cx="25" cy="25" r="5" fill="#41EAD4"/>
</g>
<circle cx="45" cy="25" r="5" fill="#41EAD4"/>
<circle cx="5" cy="45" r="5" fill="#41EAD4"/>
<circle cx="25" cy="45" r="5" fill="#41EAD4"/>
<circle cx="45" cy="45" r="5" fill="#41EAD4"/>
<circle cx="5" cy="65" r="5" fill="#41EAD4"/>
<circle cx="25" cy="65" r="5" fill="#41EAD4"/>
<circle cx="45" cy="65" r="5" fill="#41EAD4"/>
<circle cx="5" cy="85" r="5" fill="#41EAD4"/>
<circle cx="25" cy="85" r="5" fill="#41EAD4"/>
<circle cx="45" cy="85" r="5" fill="#41EAD4"/>
<circle cx="5" cy="105" r="5" fill="#41EAD4"/>
<circle cx="25" cy="105" r="5" fill="#41EAD4"/>
<circle cx="45" cy="105" r="5" fill="#41EAD4"/>
<circle cx="125" cy="185" r="5" fill="#41EAD4"/>
<circle cx="145" cy="185" r="5" fill="#41EAD4"/>
<circle cx="165" cy="185" r="5" fill="#41EAD4"/>
<circle cx="185" cy="185" r="5" fill="#41EAD4"/>
<circle cx="205" cy="185" r="5" fill="#41EAD4"/>
<circle cx="225" cy="185" r="5" fill="#41EAD4"/>
<circle cx="125" cy="205" r="5" fill="#41EAD4"/>
<circle cx="145" cy="205" r="5" fill="#41EAD4"/>
<circle cx="165" cy="205" r="5" fill="#41EAD4"/>
<circle cx="185" cy="205" r="5" fill="#41EAD4"/>
<circle cx="205" cy="205" r="5" fill="#41EAD4"/>
<circle cx="225" cy="205" r="5" fill="#41EAD4"/>
<circle cx="125" cy="225" r="5" fill="#41EAD4"/>
<circle cx="145" cy="225" r="5" fill="#41EAD4"/>
<circle cx="165" cy="225" r="5" fill="#41EAD4"/>
<circle cx="185" cy="225" r="5" fill="#41EAD4"/>
<circle cx="205" cy="225" r="5" fill="#41EAD4"/>
<circle cx="225" cy="225" r="5" fill="#41EAD4"/>
<defs>
<filter id="filter0_d" x="16" y="20" width="18" height="18" filterUnits="userSpaceOnUse" color-interpolation-filters="sRGB">
<feFlood flood-opacity="0" result="BackgroundImageFix"/>
<feColorMatrix in="SourceAlpha" type="matrix" values="0 0 0 0 0 0 0 0 0 0 0 0 0 0 0 0 0 0 127 0"/>
<feOffset dy="4"/>
<feGaussianBlur stdDeviation="2"/>
<feColorMatrix type="matrix" values="0 0 0 0 0 0 0 0 0 0 0 0 0 0 0 0 0 0 0.25 0"/>
<feBlend mode="normal" in2="BackgroundImageFix" result="effect1_dropShadow"/>
<feBlend mode="normal" in="SourceGraphic" in2="effect1_dropShadow" result="shape"/>
</filter>
</defs>
</svg>
